<svg width="39" height="43" viewBox="0 0 39 43" fill="none" xmlns="http://www.w3.org/2000/svg">
<path fill-rule="evenodd" clip-rule="evenodd" d="M38.3994 0C35.5201 0.882353 14.2972 15.1393 14.2972 15.1393C10.3963 17.6471 5.00928 21.8266 4.35913 22.5697C3.56965 23.4985 -0.191957 33.808 0.0402406 34.4118C4.08049 30.4644 5.75231 29.6749 6.68111 29.8142C7.79566 26.7028 10.5356 21.13 13.7399 18.1579C16.9443 15.1858 34.6842 1.90402 38.3994 0ZM11.4644 24.8916C10.8837 25.952 10.7148 28.8928 10.5622 31.55V31.55C10.4358 33.7497 10.3206 35.7551 9.99226 36.3386L9.97833 36.3622C9.98302 36.3546 9.98766 36.3467 9.99226 36.3386L10.1428 36.0822C11.4864 33.7922 12.9133 31.3604 15.4118 30.5573C17.0191 25.9585 30.0021 11.3576 37.6871 5.73976C38.0008 5.51982 38.3007 5.30904 38.5851 5.10836C38.295 5.30356 37.9953 5.51444 37.6871 5.73976C36.2148 6.77177 34.4364 8.00545 32.5071 9.3438L32.5063 9.34437C23.9046 15.3112 12.304 23.3584 11.4644 24.8916ZM37.3777 30.0929H24.096C24.096 26.4252 27.0692 23.452 30.7368 23.452C34.4045 23.452 37.3777 26.4252 37.3777 30.0929ZM31.8154 31.6718H37.3777L37.3777 42.8638H31.8154V31.6718ZM30.2365 31.6718V42.8638H24.1424V31.6718H30.2365Z" fill="#C66308"/>
</svg>
